<?xml version="1.0" standalone="no"?>
<!DOCTYPE svg PUBLIC "-//W3C//DTD SVG 20010904//EN"
 "http://www.w3.org/TR/2001/REC-SVG-20010904/DTD/svg10.dtd">
<svg version="1.0" xmlns="http://www.w3.org/2000/svg"
 width="447.000000pt" height="465.000000pt" viewBox="0 0 447.000000 465.000000"
 preserveAspectRatio="xMidYMid meet">

<g transform="translate(0.000000,465.000000) scale(0.100000,-0.100000)"
fill="#000000" stroke="none">
<path d="M2165 4578 c-44 -71 -385 -625 -600 -973 -163 -264 -166 -270 -158
-279 9 -8 75 -7 89 2 11 6 227 354 582 935 80 130 148 237 152 237 4 0 84
-125 177 -277 384 -627 547 -888 557 -895 15 -11 84 -10 90 1 5 8 -82 154
-374 626 -65 105 -185 300 -268 435 -136 223 -152 245 -179 248 -27 3 -33 -3
-68 -60z"/>
<path d="M2075 4118 c-87 -123 -163 -230 -168 -238 -6 -8 66 61 160 154 l170
168 153 -171 c84 -94 155 -171 157 -171 3 0 -3 12 -13 28 -10 15 -76 117 -147
227 -71 110 -134 206 -142 213 -10 11 -41 -26 -170 -210z"/>
<path d="M2080 3907 c-80 -73 -177 -161 -215 -195 l-70 -64 219 110 219 109
225 -108 c124 -60 226 -108 227 -107 3 3 -443 382 -453 385 -4 1 -72 -57 -152
-130z"/>
<path d="M1923 3568 c-166 -95 -300 -174 -299 -175 1 -2 139 34 306 78 l304
81 269 -71 c149 -39 272 -70 274 -68 4 5 -532 327 -544 327 -4 0 -144 -78
-310 -172z"/>
<path d="M20 3255 c-19 -22 -11 -38 90 -185 51 -74 111 -161 132 -192 39 -57
40 -58 89 -58 27 0 49 3 49 6 0 4 -54 84 -120 180 -66 95 -120 176 -120 179 0
3 941 5 2090 5 1150 0 2090 -2 2090 -5 0 -3 -54 -84 -120 -179 -66 -96 -120
-177 -120 -180 0 -4 23 -6 51 -4 l52 3 133 195 c74 107 134 202 134 211 0 8
-5 20 -12 27 -9 9 -514 12 -2209 12 -1937 0 -2198 -2 -2209 -15z"/>
<path d="M1565 2791 c-84 -38 -120 -113 -113 -236 7 -131 63 -196 173 -203
125 -8 195 63 203 208 4 63 1 85 -17 126 -28 62 -46 82 -96 105 -51 24 -99 24
-150 0z m135 -89 c45 -46 52 -159 14 -233 -28 -56 -107 -60 -147 -7 -24 32
-33 129 -18 185 22 81 98 108 151 55z"/>
<path d="M2011 2798 c-47 -16 -94 -66 -109 -115 -15 -49 -16 -155 -2 -205 23
-81 89 -128 181 -128 87 0 151 45 165 119 6 31 6 31 -37 31 -40 0 -46 -4 -59
-32 -27 -58 -117 -62 -146 -7 -36 70 -29 204 11 245 35 35 96 33 124 -2 12
-15 21 -33 21 -40 0 -10 14 -14 45 -14 41 0 45 2 45 24 0 32 -38 86 -77 108
-39 23 -117 31 -162 16z"/>
<path d="M910 2575 l0 -225 47 0 46 0 -6 163 -6 162 18 -45 c10 -25 37 -98 61
-163 l43 -118 31 3 c30 3 32 7 79 133 76 209 72 208 69 25 l-3 -160 45 0 46 0
0 225 0 226 -62 -3 -61 -3 -56 -157 c-31 -87 -59 -152 -62 -145 -4 6 -30 78
-59 160 l-53 147 -58 0 -59 0 0 -225z"/>
<path d="M2312 2578 l3 -223 143 -3 142 -3 0 41 0 40 -95 0 -95 0 0 185 0 185
-50 0 -50 0 2 -222z"/>
<path d="M2712 2582 c-45 -120 -82 -222 -82 -226 0 -4 21 -6 48 -4 46 3 47 4
62 46 l15 43 84 -3 84 -3 15 -42 c14 -43 14 -43 63 -43 l48 0 -28 78 c-16 42
-54 142 -84 222 l-55 145 -44 3 -44 3 -82 -219z m157 19 c11 -36 21 -69 21
-73 0 -4 -24 -8 -54 -8 l-54 0 26 80 c14 44 29 76 33 72 3 -4 16 -36 28 -71z"/>
<path d="M3055 2763 c3 -21 25 -121 48 -223 l42 -185 46 -3 46 -3 27 108 c15
59 32 126 38 148 l11 40 37 -145 36 -145 47 -3 c26 -2 47 -1 47 1 0 6 91 411
96 430 5 16 0 18 -43 15 l-48 -3 -29 -155 -30 -155 -34 145 c-18 80 -35 151
-37 158 -4 12 -85 18 -85 6 0 -17 -63 -280 -69 -286 -4 -4 -19 60 -35 142
l-28 150 -45 0 -45 0 7 -37z"/>
<path d="M638 2098 c-9 -13 -65 -104 -125 -203 -61 -99 -199 -323 -307 -498
-108 -175 -196 -329 -196 -342 0 -17 8 -26 31 -34 36 -13 1386 -16 1405 -3 8
5 4 19 -12 45 l-24 37 -630 0 c-398 0 -631 4 -635 10 -5 8 79 148 477 795 147
239 138 215 80 215 -40 0 -52 -4 -64 -22z"/>
<path d="M1759 2113 c-895 -3 -957 -4 -971 -21 -41 -45 -308 -480 -308 -500 0
-15 8 -26 26 -32 16 -6 652 -10 1744 -10 1716 0 1719 0 1730 20 9 18 -11 56
-151 279 -110 177 -168 261 -183 265 -11 3 -226 5 -476 3 -250 -1 -885 -3
-1411 -4z m-246 -235 c0 -49 0 -88 2 -88 1 0 17 41 35 90 24 66 37 90 50 90
13 0 26 -23 49 -90 18 -49 34 -90 35 -90 1 0 0 41 -2 90 l-4 90 31 0 31 0 0
-136 0 -135 -37 3 -38 3 -30 88 c-16 48 -32 87 -35 87 -3 0 -19 -39 -36 -88
-31 -87 -31 -87 -67 -90 l-37 -3 0 136 0 136 28 -3 27 -3 -2 -87z m421 82 c80
-30 89 -192 14 -244 -37 -26 -93 -20 -130 13 -32 28 -33 32 -33 106 0 74 1 78
33 106 34 31 71 37 116 19z m275 -16 c37 -31 41 -64 8 -64 -12 0 -28 9 -35 20
-16 27 -68 27 -82 1 -18 -36 -12 -119 11 -142 11 -11 27 -18 36 -15 8 3 18 6
23 6 5 0 12 9 15 20 4 13 15 20 31 20 34 0 31 -32 -7 -64 -36 -31 -92 -35
-128 -10 -66 47 -66 191 0 238 36 25 92 21 128 -10z m241 1 c0 -24 -3 -25 -55
-25 l-55 0 0 -111 0 -110 -27 3 -28 3 -3 119 c-1 66 0 126 2 133 4 9 29 13 86
13 79 0 80 0 80 -25z m81 -5 c10 -28 15 -30 59 -30 46 0 49 2 55 30 5 25 11
30 36 30 16 0 29 -3 29 -7 -1 -5 -22 -64 -48 -133 -42 -111 -50 -125 -72 -128
-26 -3 -31 7 -118 256 -3 7 6 12 22 12 21 0 29 -7 37 -30z m313 -60 c10 -47
21 -79 24 -72 2 7 12 46 21 85 15 65 19 72 43 75 30 4 29 7 58 -128 11 -52 23
-105 25 -118 5 -21 2 -23 -22 -20 -26 3 -29 7 -42 81 -8 42 -18 77 -21 77 -4
0 -15 -36 -24 -80 -16 -72 -20 -80 -41 -80 -21 0 -25 8 -40 78 -10 42 -20 81
-23 87 -3 5 -13 -29 -21 -75 -15 -81 -17 -85 -43 -88 -16 -2 -28 -1 -28 1 0 7
50 230 56 250 4 13 14 17 32 15 25 -3 28 -9 46 -88z"/>
<path d="M1849 1904 c-8 -9 -13 -40 -13 -71 0 -45 4 -59 22 -74 24 -19 49 -16
70 9 15 19 16 106 2 133 -13 24 -62 26 -81 3z"/>
<path d="M2561 1858 c0 -7 6 -29 14 -48 l13 -35 10 25 c26 67 26 70 -7 70 -19
0 -31 -5 -30 -12z"/>
<path d="M3720 2111 c0 -5 66 -116 147 -247 385 -625 453 -739 453 -751 0 -11
-116 -13 -635 -13 l-635 0 -24 -37 c-16 -26 -20 -40 -12 -45 17 -12 1380 -10
1410 2 34 12 34 51 2 99 -13 20 -121 196 -241 391 -120 195 -254 412 -297 483
l-80 127 -44 0 c-24 0 -44 -4 -44 -9z"/>
<path d="M1200 1485 c0 -5 97 -148 328 -485 78 -113 164 -239 192 -280 28 -41
105 -153 170 -247 66 -95 161 -234 211 -309 53 -77 103 -141 117 -147 30 -14
43 0 147 155 38 57 133 195 210 308 78 113 185 269 238 348 53 78 137 200 185
270 179 259 262 381 262 386 0 3 -22 6 -49 6 l-49 0 -173 -252 c-95 -139 -245
-359 -334 -488 -89 -129 -219 -319 -289 -422 -71 -104 -132 -188 -136 -188 -4
0 -74 98 -155 218 -82 119 -217 316 -300 437 -83 121 -224 327 -314 458 l-162
237 -50 0 c-27 0 -49 -2 -49 -5z"/>
</g>
</svg>
